<svg version="1.1" xmlns="http://www.w3.org/2000/svg" viewBox="0 0 324.8000183105469 234.4000244140625" width="324.8000183105469" height="234.4000244140625" filter="invert(93%) hue-rotate(180deg)" class=.excalidraw.png-svg"><!-- svg-source.excalidraw.png --><metadata></metadata><defs><style class="style-fonts">
      </style></defs><rect x="0" y="0" width="324.8000183105469" height="234.4000244140625" fill="#ffffff"></rect><g transform="translate(29.20001220703125 139.60000610351562) rotate(0 142.8000030517578 -62.40000915527344)" stroke="none"><path fill="#1e1e1e" d="M 0,-5.32 Q 0,-5.32 2.52,-5.33 5.05,-5.34 8.59,-5.47 12.12,-5.59 14.51,-5.91 16.90,-6.23 19.91,-6.68 22.92,-7.13 25.56,-8.01 28.19,-8.89 31.12,-10.18 34.05,-11.48 36.48,-13.05 38.92,-14.63 40.73,-16.52 42.53,-18.42 44.08,-20.38 45.63,-22.34 47.23,-24.34 48.83,-26.34 50.52,-28.86 52.22,-31.38 54.58,-34.66 56.94,-37.94 58.52,-40.60 60.10,-43.26 61.33,-45.95 62.56,-48.65 64.33,-51.34 66.11,-54.04 67.40,-56.20 68.69,-58.36 70.20,-60.68 71.71,-63.00 73.17,-65.36 74.63,-67.72 76.59,-70.56 78.55,-73.41 79.90,-75.38 81.25,-77.35 82.83,-79.71 84.42,-82.07 86.05,-84.52 87.68,-86.97 89.59,-89.85 91.50,-92.73 92.90,-95.73 94.29,-98.74 96.28,-101.77 98.27,-104.80 99.25,-106.85 100.22,-108.90 101.37,-110.95 102.52,-113.00 103.75,-114.74 104.99,-116.47 106.57,-119.17 108.15,-121.88 109.93,-123.87 111.71,-125.85 113.43,-127.98 115.16,-130.10 117.33,-131.60 119.51,-133.09 122.25,-133.76 124.99,-134.43 127.27,-134.87 129.55,-135.31 131.97,-135.51 134.39,-135.70 137.62,-135.87 140.85,-136.04 143.34,-136.44 145.83,-136.85 148.65,-136.90 151.48,-136.95 153.73,-136.95 155.99,-136.94 159.42,-135.35 162.85,-133.77 165.62,-132.16 168.40,-130.54 170.66,-129.40 172.92,-128.26 174.97,-127.30 177.01,-126.34 179.70,-123.93 182.39,-121.51 183.94,-120.00 185.50,-118.49 187.27,-116.40 189.03,-114.30 190.97,-111.56 192.92,-108.83 194.41,-107.24 195.90,-105.65 197.24,-103.71 198.58,-101.76 200.96,-97.78 203.34,-93.81 204.66,-91.24 205.98,-88.67 207.42,-87.05 208.87,-85.43 209.76,-83.18 210.65,-80.92 212.29,-77.97 213.93,-75.01 216.24,-71.52 218.55,-68.03 219.92,-65.49 221.29,-62.95 222.36,-61.00 223.42,-59.04 224.63,-57.02 225.85,-55.00 227.36,-53.41 228.88,-51.81 230.25,-49.31 231.62,-46.82 233.24,-44.52 234.86,-42.21 236.83,-38.96 238.81,-35.72 240.73,-33.08 242.66,-30.44 244.41,-27.78 246.15,-25.11 247.73,-23.43 249.31,-21.76 251.60,-19.19 253.89,-16.61 255.37,-15.08 256.85,-13.55 258.35,-11.40 259.86,-9.25 262.27,-8.99 264.69,-8.72 267.71,-7.23 270.72,-5.74 273.48,-5.00 276.23,-4.25 278.94,-3.79 281.64,-3.33 284.02,-2.84 286.40,-2.35 287.49,-1.97 288.59,-1.58 289.51,-0.87 290.43,-0.16 291.07,0.80 291.71,1.77 292.01,2.90 292.31,4.02 292.23,5.18 292.16,6.34 291.72,7.41 291.27,8.49 290.51,9.37 289.75,10.24 288.75,10.83 287.75,11.42 286.61,11.66 285.47,11.90 284.32,11.76 283.16,11.62 282.11,11.12 281.06,10.62 280.23,9.81 279.39,9.00 278.86,7.97 278.33,6.94 278.15,5.79 277.97,4.64 278.18,3.50 278.38,2.35 278.93,1.33 279.49,0.31 280.34,-0.47 281.19,-1.26 282.25,-1.74 283.31,-2.21 284.47,-2.33 285.63,-2.44 286.76,-2.18 287.89,-1.92 288.88,-1.31 289.87,-0.70 290.61,0.19 291.36,1.08 291.77,2.17 292.19,3.25 292.24,4.41 292.29,5.57 291.97,6.69 291.65,7.81 290.98,8.76 290.32,9.72 289.39,10.41 288.45,11.10 287.35,11.46 286.24,11.82 285.08,11.81 283.92,11.80 283.92,11.80 283.92,11.80 282.13,11.37 280.35,10.94 277.40,10.52 274.46,10.09 272.31,9.80 270.16,9.50 266.85,8.29 263.55,7.08 261.54,6.15 259.53,5.22 257.08,3.98 254.63,2.75 252.05,0.79 249.47,-1.16 247.36,-3.16 245.25,-5.15 242.75,-7.73 240.24,-10.31 238.32,-12.35 236.40,-14.39 234.83,-16.41 233.26,-18.43 231.75,-20.68 230.24,-22.93 228.87,-24.78 227.50,-26.63 225.99,-29.22 224.47,-31.81 222.59,-34.50 220.71,-37.18 219.69,-39.39 218.67,-41.60 216.98,-43.34 215.29,-45.08 213.87,-47.03 212.45,-48.99 210.63,-52.15 208.81,-55.32 207.21,-58.51 205.60,-61.69 204.15,-63.38 202.70,-65.07 201.28,-68.01 199.87,-70.95 198.67,-73.88 197.47,-76.81 194.95,-80.05 192.44,-83.29 191.46,-85.54 190.48,-87.79 188.85,-90.78 187.23,-93.77 185.19,-95.81 183.15,-97.84 181.59,-100.17 180.03,-102.50 178.35,-104.56 176.67,-106.62 174.75,-108.94 172.83,-111.26 170.95,-112.70 169.07,-114.13 166.55,-115.24 164.03,-116.35 161.37,-117.81 158.71,-119.27 155.94,-120.75 153.18,-122.22 150.60,-122.22 148.02,-122.21 145.49,-121.84 142.97,-121.47 140.01,-121.33 137.06,-121.20 134.07,-121.23 131.08,-121.26 127.58,-120.32 124.09,-119.38 122.22,-116.71 120.35,-114.04 118.38,-111.05 116.41,-108.05 114.64,-105.42 112.87,-102.79 111.64,-100.34 110.41,-97.89 108.53,-95.05 106.65,-92.21 105.29,-89.69 103.92,-87.18 102.35,-84.89 100.78,-82.59 99.02,-79.75 97.26,-76.91 95.90,-74.67 94.54,-72.44 92.91,-70.03 91.28,-67.61 89.48,-65.35 87.69,-63.09 86.13,-60.45 84.56,-57.80 83.09,-55.98 81.61,-54.16 80.08,-51.46 78.54,-48.76 77.04,-46.46 75.53,-44.16 74.35,-42.12 73.16,-40.08 71.44,-36.69 69.72,-33.30 67.58,-30.27 65.43,-27.25 63.57,-24.19 61.72,-21.12 60.44,-19.22 59.17,-17.31 57.49,-15.27 55.82,-13.22 54.46,-11.57 53.11,-9.91 51.31,-8.24 49.52,-6.57 46.43,-4.52 43.34,-2.46 40.78,-1.09 38.22,0.26 35.22,1.47 32.22,2.68 28.51,3.71 24.81,4.74 21.74,5.02 18.68,5.31 15.40,5.45 12.12,5.59 8.59,5.47 5.05,5.34 2.52,5.33 0,5.32 -0.63,5.24 -1.27,5.17 -1.87,4.94 -2.47,4.71 -3.00,4.35 -3.53,3.98 -3.95,3.50 -4.38,3.02 -4.68,2.45 -4.98,1.88 -5.13,1.26 -5.28,0.64 -5.28,-0.00 -5.28,-0.64 -5.13,-1.26 -4.98,-1.88 -4.68,-2.45 -4.38,-3.02 -3.95,-3.50 -3.53,-3.98 -3.00,-4.35 -2.47,-4.71 -1.87,-4.94 -1.27,-5.17 -0.63,-5.24 0.00,-5.32 0.00,-5.32 L 0,-5.32 Z"></path></g><g transform="translate(110.79998779296875 38.800018310546875) rotate(0 -0.399993896484375 50.79998779296875)" stroke="none"><path fill="#1e1e1e" d="M 4.95,0 Q 4.95,0 4.93,2.98 4.91,5.97 4.91,8.86 4.91,11.74 4.88,14.80 4.86,17.87 4.86,20.78 4.86,23.69 4.87,26.54 4.88,29.39 4.89,32.21 4.90,35.03 5.07,38.96 5.24,42.90 5.40,45.35 5.56,47.80 5.73,50.44 5.90,53.08 6.05,56.10 6.19,59.12 6.26,61.48 6.34,63.84 6.45,66.39 6.56,68.94 6.65,71.31 6.74,73.68 6.79,76.42 6.85,79.16 6.89,82.37 6.93,85.58 6.98,88.13 7.04,90.69 6.71,94.11 6.38,97.53 6.36,99.47 6.34,101.42 6.12,102.55 5.90,103.68 5.33,104.69 4.76,105.69 3.90,106.46 3.04,107.23 1.98,107.69 0.92,108.14 -0.22,108.23 -1.38,108.33 -2.50,108.05 -3.62,107.76 -4.59,107.14 -5.56,106.52 -6.28,105.61 -7.01,104.71 -7.40,103.63 -7.80,102.54 -7.83,101.39 -7.86,100.23 -7.52,99.13 -7.17,98.03 -6.50,97.09 -5.82,96.15 -4.88,95.48 -3.94,94.81 -2.84,94.47 -1.73,94.13 -0.58,94.17 0.57,94.20 1.65,94.60 2.73,95.00 3.63,95.73 4.53,96.45 5.15,97.43 5.77,98.40 6.05,99.52 6.32,100.64 6.23,101.80 6.13,102.95 5.67,104.01 5.21,105.07 4.44,105.93 3.67,106.78 2.66,107.35 1.65,107.92 0.52,108.13 -0.60,108.35 -1.75,108.19 -2.89,108.03 -3.93,107.52 -4.96,107.00 -5.78,106.18 -6.59,105.36 -7.10,104.33 -7.61,103.29 -7.77,102.15 -7.92,101.00 -7.92,101.00 -7.92,101.00 -7.83,99.00 -7.74,97.00 -7.39,93.84 -7.04,90.69 -6.98,88.13 -6.93,85.58 -6.89,82.37 -6.85,79.16 -6.79,76.42 -6.74,73.68 -6.65,71.31 -6.56,68.94 -6.45,66.39 -6.34,63.84 -6.26,61.48 -6.19,59.12 -6.05,56.10 -5.90,53.08 -5.73,50.44 -5.56,47.80 -5.40,45.35 -5.24,42.90 -5.07,38.96 -4.90,35.03 -4.89,32.21 -4.88,29.39 -4.87,26.54 -4.86,23.69 -4.86,20.78 -4.86,17.87 -4.88,14.80 -4.91,11.74 -4.91,8.86 -4.91,5.97 -4.93,2.98 -4.95,0 -4.88,-0.59 -4.80,-1.18 -4.59,-1.74 -4.38,-2.30 -4.04,-2.79 -3.70,-3.28 -3.25,-3.67 -2.81,-4.07 -2.28,-4.35 -1.75,-4.63 -1.17,-4.77 -0.59,-4.91 0.00,-4.91 0.59,-4.91 1.17,-4.77 1.75,-4.63 2.28,-4.35 2.81,-4.07 3.26,-3.67 3.70,-3.28 4.04,-2.79 4.38,-2.30 4.59,-1.74 4.80,-1.18 4.88,-0.59 4.95,0.00 4.95,0.00 L 4.95,0 Z"></path></g><g transform="translate(97.20001220703125 185.20001220703125) rotate(0 17.599990844726562 19.600006103515625)" stroke="none"><path fill="#1e1e1e" d="M 0,-5.25 Q 0,-5.25 2.06,-5.31 4.13,-5.37 7.06,-5.51 9.99,-5.65 12.16,-5.78 14.32,-5.90 16.77,-6.05 19.22,-6.21 23.63,-5.02 28.04,-3.84 29.60,-1.61 31.16,0.62 31.29,2.98 31.43,5.35 30.65,7.60 29.87,9.86 27.98,12.41 26.09,14.97 25.20,17.09 24.30,19.21 22.39,21.53 20.47,23.85 18.67,26.65 16.88,29.45 15.35,31.27 13.83,33.09 12.10,35.08 10.36,37.07 10.96,38.38 11.56,39.69 11.37,40.55 11.17,41.40 10.78,42.17 10.39,42.95 9.82,43.62 9.25,44.28 8.54,44.79 7.83,45.29 7.02,45.62 6.21,45.94 5.35,46.06 4.48,46.18 3.61,46.09 2.75,46.00 1.93,45.70 1.11,45.41 0.38,44.92 -0.34,44.44 -0.93,43.80 -1.52,43.15 -1.93,42.39 -2.35,41.62 -2.57,40.78 -2.80,39.94 -2.81,39.06 -2.83,38.19 1.79,35.05 6.42,31.90 10.29,31.64 14.16,31.37 17.35,30.93 20.54,30.49 22.98,30.41 25.42,30.33 29.22,30.92 33.02,31.51 34.56,31.70 36.11,31.88 37.23,32.27 38.36,32.66 39.30,33.40 40.24,34.13 40.90,35.12 41.55,36.12 41.86,37.27 42.17,38.42 42.09,39.61 42.01,40.80 41.56,41.90 41.10,43.00 40.32,43.90 39.54,44.80 38.51,45.40 37.48,46.01 36.31,46.25 35.15,46.49 33.96,46.35 32.78,46.21 31.71,45.69 30.63,45.18 29.77,44.35 28.92,43.52 28.37,42.46 27.83,41.40 27.65,40.22 27.47,39.05 27.68,37.87 27.88,36.70 28.45,35.65 29.02,34.61 29.90,33.80 30.77,32.99 31.86,32.50 32.95,32.01 34.13,31.90 35.32,31.78 36.48,32.05 37.64,32.32 38.65,32.95 39.67,33.57 40.43,34.49 41.19,35.41 41.62,36.52 42.05,37.63 42.10,38.82 42.15,40.01 41.81,41.16 41.48,42.30 40.80,43.28 40.12,44.26 39.16,44.97 38.21,45.68 37.07,46.05 35.94,46.41 34.75,46.40 33.56,46.39 33.56,46.39 33.56,46.39 31.01,45.60 28.47,44.82 26.33,44.83 24.19,44.85 22.03,44.86 19.87,44.87 17.49,45.29 15.12,45.70 12.13,46.05 9.15,46.41 6.89,46.34 4.64,46.27 8.10,42.98 11.56,39.69 11.37,40.54 11.17,41.39 10.78,42.17 10.39,42.95 9.82,43.62 9.25,44.28 8.54,44.79 7.83,45.29 7.02,45.62 6.21,45.94 5.35,46.06 4.48,46.18 3.62,46.09 2.75,46.00 1.93,45.70 1.11,45.41 0.38,44.92 -0.34,44.44 -0.93,43.80 -1.52,43.15 -1.93,42.39 -2.35,41.62 -2.57,40.78 -2.80,39.94 -2.81,39.06 -2.83,38.19 -2.15,36.15 -1.47,34.12 -1.10,31.88 -0.72,29.64 0.48,27.77 1.69,25.90 3.03,24.20 4.37,22.49 6.32,19.98 8.27,17.48 10.87,14.19 13.47,10.89 16.35,8.55 19.22,6.21 16.77,6.05 14.32,5.90 12.16,5.78 9.99,5.65 7.06,5.51 4.13,5.37 2.06,5.31 0,5.25 -0.62,5.17 -1.25,5.10 -1.84,4.87 -2.44,4.65 -2.96,4.29 -3.48,3.93 -3.90,3.45 -4.32,2.98 -4.61,2.42 -4.91,1.86 -5.06,1.24 -5.21,0.63 -5.21,-0.00 -5.21,-0.63 -5.06,-1.24 -4.91,-1.86 -4.61,-2.42 -4.32,-2.98 -3.90,-3.45 -3.48,-3.93 -2.96,-4.29 -2.44,-4.65 -1.84,-4.87 -1.25,-5.10 -0.62,-5.17 0.00,-5.25 0.00,-5.25 L 0,-5.25 Z"></path></g><g transform="translate(98 207.60003662109375) rotate(0 17.199996948242188 -2.800018310546875)" stroke="none"><path fill="#1e1e1e" d="M -1.30,-4.89 Q -1.30,-4.89 2.18,-5.67 5.66,-6.46 8.62,-7.11 11.57,-7.77 14.67,-8.10 17.78,-8.42 21.73,-9.08 25.68,-9.75 27.77,-10.31 29.85,-10.88 31.81,-11.01 33.76,-11.15 34.66,-11.03 35.55,-10.91 36.36,-10.51 37.17,-10.12 37.81,-9.48 38.45,-8.85 38.85,-8.04 39.25,-7.23 39.38,-6.34 39.50,-5.45 39.34,-4.56 39.17,-3.68 38.73,-2.89 38.29,-2.10 37.62,-1.50 36.95,-0.90 36.12,-0.54 35.30,-0.18 34.40,-0.10 33.50,-0.03 32.62,-0.24 31.75,-0.46 30.99,-0.94 30.23,-1.42 29.66,-2.12 29.09,-2.82 28.78,-3.67 28.46,-4.51 28.44,-5.41 28.41,-6.32 28.67,-7.18 28.93,-8.04 29.46,-8.77 29.98,-9.51 30.71,-10.04 31.44,-10.56 32.30,-10.83 33.16,-11.10 34.06,-11.08 34.97,-11.06 35.81,-10.75 36.66,-10.44 37.36,-9.88 38.07,-9.31 38.56,-8.56 39.04,-7.80 39.26,-6.92 39.48,-6.05 39.41,-5.15 39.34,-4.25 38.99,-3.42 38.64,-2.59 38.04,-1.92 37.44,-1.25 36.65,-0.80 35.87,-0.36 34.99,-0.18 34.10,-0.01 34.10,-0.01 34.10,-0.01 31.95,0.01 29.80,0.04 26.53,0.34 23.26,0.64 20.97,0.92 18.68,1.20 16.14,1.40 13.61,1.61 10.87,2.19 8.13,2.78 4.71,3.83 1.30,4.89 0.70,4.97 0.09,5.06 -0.51,4.99 -1.11,4.93 -1.69,4.73 -2.26,4.52 -2.77,4.18 -3.28,3.85 -3.69,3.40 -4.11,2.95 -4.40,2.41 -4.69,1.88 -4.85,1.29 -5.01,0.70 -5.02,0.09 -5.03,-0.51 -4.90,-1.11 -4.76,-1.70 -4.49,-2.25 -4.21,-2.79 -3.82,-3.26 -3.42,-3.72 -2.93,-4.08 -2.43,-4.43 -1.87,-4.66 -1.30,-4.89 -1.30,-4.89 L -1.30,-4.89 Z"></path></g><g transform="translate(49.20001220703125 142.80001831054688) rotate(0 31.599990844726562 -1.20001220703125)" stroke="none"><path fill="#1e1e1e" d="M -0.66,-5.30 Q -0.66,-5.30 1.16,-5.59 3.00,-5.89 6.03,-6.18 9.07,-6.48 11.75,-6.61 14.43,-6.74 17.13,-7.02 19.83,-7.30 23.67,-7.51 27.52,-7.71 29.73,-7.72 31.94,-7.72 35.50,-7.76 39.07,-7.81 41.31,-7.88 43.56,-7.95 46.03,-8.06 48.50,-8.18 50.98,-8.28 53.46,-8.38 55.88,-8.86 58.30,-9.33 60.61,-9.37 62.92,-9.41 64.04,-9.23 65.16,-9.05 66.17,-8.52 67.17,-7.99 67.95,-7.16 68.73,-6.34 69.21,-5.31 69.69,-4.28 69.81,-3.15 69.94,-2.02 69.70,-0.92 69.45,0.18 68.87,1.16 68.29,2.13 67.42,2.87 66.56,3.60 65.50,4.02 64.45,4.45 63.32,4.51 62.18,4.57 61.09,4.27 59.99,3.97 59.05,3.33 58.11,2.70 57.43,1.79 56.74,0.89 56.37,-0.18 56.01,-1.25 56.01,-2.39 56.01,-3.52 56.37,-4.60 56.73,-5.67 57.42,-6.58 58.10,-7.48 59.04,-8.12 59.98,-8.76 61.07,-9.06 62.17,-9.37 63.30,-9.31 64.43,-9.25 65.49,-8.83 66.54,-8.41 67.41,-7.68 68.27,-6.94 68.86,-5.97 69.45,-5.00 69.69,-3.89 69.94,-2.78 69.82,-1.65 69.70,-0.53 69.22,0.50 68.74,1.53 67.96,2.35 67.18,3.18 66.18,3.71 65.18,4.24 64.06,4.43 62.94,4.61 62.94,4.61 62.94,4.61 59.35,4.88 55.75,5.14 53.56,5.12 51.36,5.10 49.19,5.01 47.02,4.92 44.46,4.80 41.91,4.68 38.80,4.63 35.70,4.58 31.75,4.61 27.79,4.64 24.62,4.71 21.45,4.79 17.96,4.97 14.48,5.16 11.96,5.08 9.43,5.00 6.89,4.98 4.35,4.97 2.51,5.13 0.66,5.30 0.01,5.30 -0.62,5.30 -1.25,5.15 -1.87,5.00 -2.44,4.70 -3.02,4.40 -3.50,3.98 -3.98,3.55 -4.35,3.02 -4.72,2.50 -4.95,1.89 -5.18,1.29 -5.26,0.65 -5.34,0.01 -5.26,-0.62 -5.19,-1.26 -4.96,-1.86 -4.74,-2.46 -4.37,-2.99 -4.01,-3.53 -3.53,-3.95 -3.05,-4.38 -2.48,-4.68 -1.91,-4.99 -1.28,-5.14 -0.66,-5.30 -0.66,-5.30 L -0.66,-5.30 Z"></path></g><g transform="translate(72.39999389648438 134.80001831054688) rotate(0 -15.199996948242188 -18.800018310546875)" stroke="none"><path fill="#1e1e1e" d="M -3.91,-3.42 Q -3.91,-3.42 -2.32,-5.28 -0.74,-7.14 0.48,-8.90 1.70,-10.66 2.82,-12.53 3.95,-14.39 5.98,-16.67 8.02,-18.94 9.20,-21.58 10.39,-24.21 12.13,-27.22 13.87,-30.22 15.30,-32.87 16.73,-35.51 18.48,-37.62 20.23,-39.73 20.74,-42.60 21.24,-45.47 26.03,-48.76 30.82,-52.05 32.70,-50.64 34.57,-49.23 35.68,-47.32 36.79,-45.41 36.86,-42.74 36.93,-40.07 35.99,-36.45 35.04,-32.83 34.21,-30.26 33.38,-27.70 31.20,-25.03 29.03,-22.35 26.95,-20.03 24.87,-17.71 22.89,-15.75 20.90,-13.80 19.51,-12.04 18.12,-10.29 15.87,-8.62 13.63,-6.95 10.67,-4.22 7.71,-1.49 7.63,-1.10 7.54,-0.71 6.74,-0.32 5.93,0.06 5.06,0.25 4.18,0.43 3.29,0.40 2.39,0.37 1.53,0.13 0.67,-0.11 -0.10,-0.55 -0.87,-0.99 -1.52,-1.60 -2.17,-2.22 -2.66,-2.97 -3.14,-3.73 -3.43,-4.57 -3.72,-5.42 -3.79,-6.31 -3.87,-7.20 -3.74,-8.09 -3.60,-8.97 -3.25,-9.79 -2.91,-10.62 -2.38,-11.34 -1.84,-12.06 -1.15,-12.63 -0.46,-13.20 2.47,-13.32 5.41,-13.44 6.50,-15.77 7.58,-18.11 9.09,-20.19 10.60,-22.26 12.35,-24.56 14.11,-26.85 16.07,-29.66 18.03,-32.47 20.00,-33.87 21.96,-35.27 25.28,-36.06 28.60,-36.84 31.28,-34.49 33.96,-32.14 34.36,-29.64 34.75,-27.15 34.75,-24.81 34.76,-22.46 34.75,-20.11 34.75,-17.76 34.22,-15.02 33.70,-12.28 31.84,-8.57 29.98,-4.86 28.35,-3.24 26.73,-1.62 25.17,0.64 23.62,2.92 21.09,3.84 18.55,4.77 15.74,5.68 12.93,6.60 10.94,7.88 8.95,9.15 6.76,9.75 4.57,10.34 4.62,10.36 4.67,10.39 3.86,10.75 3.05,11.11 2.17,11.26 1.30,11.41 0.41,11.35 -0.46,11.29 -1.31,11.02 -2.15,10.75 -2.91,10.28 -3.66,9.82 -4.28,9.19 -4.91,8.55 -5.36,7.79 -5.81,7.03 -6.07,6.18 -6.33,5.33 -6.37,4.44 -6.42,3.56 -6.25,2.69 -6.08,1.82 -5.71,1.01 -5.34,0.20 -4.79,-0.48 -4.24,-1.17 -3.53,-1.71 -2.83,-2.26 -0.34,-3.78 2.15,-5.31 5.50,-6.62 8.85,-7.93 12.08,-9.16 15.31,-10.39 17.77,-11.88 20.23,-13.37 22.36,-13.65 24.49,-13.92 27.32,-13.51 30.16,-13.10 32.18,-11.95 34.21,-10.81 35.56,-5.19 36.91,0.43 34.92,2.05 32.92,3.68 30.63,5.05 28.33,6.43 26.06,7.91 23.79,9.39 21.34,10.21 18.89,11.03 16.63,11.61 14.37,12.20 11.69,12.28 9.01,12.35 6.26,12.34 3.51,12.32 0.39,12.60 -2.72,12.88 -5.10,13.29 -7.49,13.69 -9.81,13.81 -12.13,13.94 -14.52,13.95 -16.91,13.96 -19.42,13.97 -21.92,13.98 -24.68,13.97 -27.44,13.97 -30.34,14.37 -33.25,14.77 -35.50,14.79 -37.76,14.81 -40.11,14.82 -42.46,14.83 -45.16,14.84 -47.86,14.85 -50.65,14.84 -53.43,14.82 -56.10,14.80 -58.77,14.79 -57.31,13.73 -55.85,12.66 -56.68,13.57 -57.51,14.48 -58.58,15.07 -59.66,15.67 -60.87,15.88 -62.08,16.10 -63.30,15.92 -64.51,15.75 -65.61,15.19 -66.70,14.63 -67.56,13.75 -68.42,12.87 -68.96,11.77 -69.49,10.66 -69.65,9.44 -69.80,8.22 -69.55,7.02 -69.31,5.81 -68.69,4.75 -68.08,3.68 -67.15,2.87 -66.23,2.06 -65.10,1.59 -63.96,1.11 -62.74,1.03 -61.51,0.94 -60.32,1.25 -59.13,1.56 -58.10,2.23 -57.07,2.90 -56.31,3.87 -55.55,4.84 -55.14,5.99 -54.73,7.15 -54.71,8.38 -54.69,9.61 -55.06,10.78 -55.43,11.95 -56.16,12.94 -56.89,13.94 -57.90,14.64 -58.90,15.35 -60.08,15.70 -61.26,16.05 -62.49,16.00 -63.72,15.95 -64.87,15.52 -66.02,15.08 -66.97,14.30 -67.92,13.52 -68.57,12.48 -69.22,11.43 -69.50,10.24 -69.79,9.04 -69.67,7.82 -69.56,6.59 -69.06,5.47 -68.56,4.35 -68.56,4.35 -68.57,4.35 -63.67,1.97 -58.77,-0.39 -56.10,-0.40 -53.43,-0.42 -51.14,-0.44 -48.86,-0.46 -46.52,-0.45 -44.18,-0.44 -41.79,-0.43 -39.40,-0.42 -37.20,-0.42 -35.00,-0.41 -32.53,-0.75 -30.07,-1.08 -27.30,-1.13 -24.54,-1.18 -21.97,-1.18 -19.40,-1.18 -17.16,-1.16 -14.92,-1.15 -12.23,-1.08 -9.54,-1.02 -6.99,-1.44 -4.45,-1.86 -1.47,-2.28 1.49,-2.71 4.49,-2.73 7.49,-2.76 10.10,-2.69 12.70,-2.63 15.20,-3.41 17.70,-4.20 20.09,-5.89 22.49,-7.59 24.47,-8.40 26.45,-9.21 26.18,-4.60 25.90,-0.00 23.25,1.15 20.59,2.31 17.92,4.03 15.25,5.74 12.79,6.17 10.33,6.59 7.50,8.49 4.67,10.39 3.86,10.75 3.05,11.11 2.17,11.26 1.30,11.41 0.42,11.35 -0.46,11.29 -1.30,11.02 -2.15,10.75 -2.90,10.28 -3.66,9.82 -4.28,9.19 -4.90,8.56 -5.36,7.79 -5.81,7.03 -6.07,6.18 -6.33,5.33 -6.37,4.45 -6.42,3.56 -6.25,2.69 -6.08,1.82 -5.71,1.01 -5.34,0.21 -4.79,-0.48 -4.24,-1.17 -3.54,-1.71 -2.83,-2.26 0.51,-3.43 3.86,-4.60 6.08,-6.12 8.30,-7.63 11.25,-8.14 14.20,-8.64 15.48,-10.50 16.76,-12.36 18.23,-14.44 19.69,-16.52 19.66,-18.78 19.63,-21.04 19.85,-23.65 20.07,-26.27 21.95,-24.69 23.83,-23.12 27.50,-24.04 31.18,-24.97 29.35,-22.87 27.52,-20.77 26.21,-18.69 24.91,-16.61 22.95,-14.10 20.98,-11.60 18.91,-8.89 16.83,-6.19 14.83,-4.47 12.82,-2.75 10.39,-1.44 7.96,-0.14 5.54,0.01 3.11,0.16 5.33,-0.27 7.54,-0.71 6.74,-0.32 5.93,0.06 5.06,0.25 4.18,0.43 3.29,0.40 2.39,0.37 1.53,0.13 0.67,-0.11 -0.10,-0.55 -0.87,-0.99 -1.52,-1.60 -2.17,-2.22 -2.66,-2.97 -3.14,-3.73 -3.43,-4.57 -3.72,-5.42 -3.79,-6.31 -3.87,-7.20 -3.74,-8.08 -3.60,-8.97 -3.25,-9.79 -2.91,-10.62 -2.38,-11.34 -1.84,-12.06 -1.15,-12.63 -0.47,-13.20 -0.35,-13.45 -0.24,-13.70 1.60,-15.04 3.44,-16.37 6.02,-18.95 8.60,-21.52 10.46,-23.70 12.32,-25.88 14.04,-27.68 15.76,-29.48 17.64,-30.99 19.53,-32.50 20.60,-35.34 21.67,-38.18 21.97,-41.09 22.27,-44.00 24.94,-41.73 27.61,-39.47 31.59,-40.80 35.57,-42.13 34.08,-39.50 32.59,-36.88 31.57,-34.67 30.55,-32.45 29.52,-30.36 28.49,-28.26 27.38,-26.41 26.27,-24.57 25.19,-22.53 24.10,-20.49 22.05,-18.03 19.99,-15.56 18.69,-13.85 17.39,-12.13 15.54,-9.87 13.68,-7.60 12.27,-5.95 10.86,-4.29 9.02,-2.25 7.18,-0.21 5.54,1.60 3.91,3.42 3.45,3.84 2.98,4.26 2.42,4.56 1.87,4.85 1.26,5.00 0.65,5.16 0.03,5.16 -0.59,5.17 -1.20,5.02 -1.81,4.87 -2.37,4.58 -2.93,4.30 -3.40,3.88 -3.87,3.47 -4.23,2.96 -4.59,2.44 -4.82,1.86 -5.04,1.27 -5.12,0.65 -5.20,0.03 -5.13,-0.59 -5.06,-1.21 -4.84,-1.80 -4.62,-2.39 -4.27,-2.90 -3.91,-3.42 -3.91,-3.42 L -3.91,-3.42 Z"></path></g></svg>